# xmcd CD database file
#
# Track frame offsets:
#	150
#	19456
#	38761
#	51362
#	69290
#	86632
#	104054
#	123956
#	139783
#	155254
#	173904
#
# Disc length: 2618 seconds
#
# Revision: 1
# Processed by: cddbd v1.5.1PL0 Copyright (c) Steve Scherf et al.
# Submitted via: CDex 1.51
#
DISCID=940a380b
DTITLE=Mark Joseph - Scream
DYEAR=2004
DGENRE=Blues
TTITLE0=Get Through
TTITLE1=The River
TTITLE2=Lady Lady
TTITLE3=Any Evidence
TTITLE4=Bringing Back Those Memories
TTITLE5=Moody Blues
TTITLE6=Give Me
TTITLE7=Before I Waste My Time
TTITLE8=Seen Your Soul
TTITLE9=Fly
TTITLE10=Volcano
EXTD=YEAR: 2004
EXTT0=
EXTT1=
EXTT2=
EXTT3=
EXTT4=
EXTT5=
EXTT6=
EXTT7=
EXTT8=
EXTT9=
EXTT10=
PLAYORDER=
